<?xml version="1.0" standalone="no"?>
<!DOCTYPE svg PUBLIC "-//W3C//DTD SVG 20010904//EN"
 "http://www.w3.org/TR/2001/REC-SVG-20010904/DTD/svg10.dtd">
<svg version="1.0" xmlns="http://www.w3.org/2000/svg"
 width="512.000000pt" height="512.000000pt" viewBox="0 0 512.000000 512.000000"
 preserveAspectRatio="xMidYMid meet">

<g transform="translate(0.000000,512.000000) scale(0.100000,-0.100000)"
fill="#000000" stroke="none">
<path d="M2940 5024 c-59 -11 -158 -38 -224 -60 -100 -34 -180 -32 -309 7 -99
30 -107 31 -238 25 -153 -6 -194 -17 -294 -75 -194 -114 -292 -233 -389 -473
-61 -151 -96 -210 -168 -285 -64 -65 -84 -78 -234 -153 -211 -104 -273 -162
-364 -340 -29 -57 -33 -74 -33 -145 -1 -121 23 -189 86 -250 72 -70 209 -131
340 -150 l46 -7 -5 -102 c-3 -55 -10 -150 -16 -211 -5 -60 -12 -213 -15 -340
-8 -354 15 -548 98 -805 38 -116 48 -137 113 -225 75 -104 135 -164 187 -191
68 -34 150 -64 177 -64 53 0 28 -15 -158 -97 -153 -68 -202 -98 -269 -168 -50
-52 -74 -85 -90 -129 -41 -110 -121 -462 -152 -666 -5 -36 -12 -77 -14 -92 -5
-26 -3 -28 30 -28 40 0 37 -9 60 160 25 185 106 534 144 623 34 78 104 139
234 201 130 63 217 99 217 90 0 -4 -11 -32 -24 -63 -76 -173 -134 -370 -169
-566 -14 -79 -47 -379 -47 -427 0 -17 59 -18 1100 -18 l1100 0 -1 93 c-1 351
-69 710 -169 908 -12 22 -19 43 -17 45 6 6 251 -83 310 -112 138 -70 207 -301
223 -747 l7 -187 34 0 33 0 0 58 c0 106 -22 368 -45 542 -16 122 -76 267 -135
327 -17 17 -60 46 -97 65 -65 34 -288 118 -312 118 -30 0 -5 18 47 34 227 72
336 192 382 425 17 83 19 95 40 166 70 248 117 773 106 1171 l-7 220 51 12
c65 15 145 75 204 151 69 89 86 137 86 238 0 75 -5 97 -36 177 -66 165 -168
317 -248 370 -80 52 -267 144 -309 152 -32 5 -44 16 -81 68 -51 71 -110 187
-156 304 -36 91 -81 169 -153 266 -54 74 -118 116 -212 140 -63 15 -222 28
-265 20z m90 -524 c91 -11 217 -26 281 -33 91 -11 131 -21 190 -48 41 -18 75
-37 77 -40 2 -4 19 -33 38 -65 31 -51 39 -95 16 -80 -13 8 -231 34 -402 48
-200 16 -633 17 -780 0 -63 -6 -194 -19 -290 -27 -202 -18 -437 -53 -597 -90
-61 -14 -119 -25 -127 -25 -21 0 -21 24 0 41 8 7 33 44 54 82 l38 69 158 53
c354 118 919 166 1344 115z m56 -615 c297 -28 429 -65 584 -162 140 -88 224
-238 281 -502 17 -79 22 -144 26 -371 5 -249 3 -300 -21 -535 -28 -271 -51
-421 -91 -590 -13 -55 -31 -129 -39 -165 -29 -130 -76 -208 -156 -260 -54 -34
-186 -85 -279 -105 -105 -24 -391 -55 -446 -49 -27 3 -142 1 -256 -4 -227 -11
-358 -3 -509 29 -52 11 -144 29 -205 38 -221 37 -383 87 -452 141 -50 39 -167
206 -200 285 -35 83 -92 333 -103 450 -14 157 -13 373 5 660 34 558 84 733
255 906 79 80 91 88 170 116 47 17 105 34 130 38 25 4 81 16 125 26 101 23
281 49 410 58 205 14 606 12 771 -4z m-856 -2810 c47 -8 103 -15 125 -15 37 0
76 -14 65 -23 -3 -2 -25 -18 -50 -37 -73 -54 -119 -101 -161 -162 -22 -32 -42
-58 -45 -58 -9 0 -53 141 -79 255 -18 79 -20 74 22 64 21 -5 76 -16 123 -24z
m880 -13 c0 -13 -111 -306 -120 -315 -4 -5 -20 22 -36 60 -16 37 -44 87 -61
111 -18 23 -33 45 -33 49 0 4 -17 24 -37 45 -27 27 -33 39 -22 43 8 2 73 6
144 8 72 1 138 4 148 5 9 1 17 -2 17 -6z m-636 -174 l28 -62 -40 -125 c-56
-175 -107 -319 -114 -327 -4 -3 -18 16 -31 43 -29 56 -97 247 -97 270 0 31
109 180 162 221 29 22 55 41 58 41 3 1 18 -27 34 -61z m329 20 c14 -18 50 -86
81 -150 l57 -117 -24 -38 c-91 -145 -110 -173 -115 -168 -8 8 -80 261 -93 327
-11 55 -11 58 15 89 15 17 30 45 33 60 7 37 16 36 46 -3z"/>
<path d="M2880 3349 c-48 -9 -145 -70 -161 -101 -12 -22 12 -68 34 -68 7 0 36
18 65 39 89 67 184 67 256 0 53 -51 81 -50 80 4 -2 43 -39 91 -89 112 -42 18
-132 25 -185 14z"/>
<path d="M2182 3326 c-61 -28 -101 -66 -108 -103 -12 -63 22 -68 91 -13 72 57
145 56 236 -4 42 -28 68 -33 87 -14 30 30 -5 77 -88 118 -57 29 -170 37 -218
16z"/>
<path d="M3159 2955 c-130 -21 -308 -70 -329 -91 -15 -15 -15 -91 0 -109 12
-14 25 -16 67 -12 29 3 53 4 53 2 0 -1 -7 -20 -17 -41 -24 -58 -21 -209 7
-297 28 -90 73 -136 157 -161 116 -35 246 -5 317 74 27 30 36 52 47 110 11 63
10 86 -4 172 -10 55 -27 118 -38 140 l-20 39 33 -5 c187 -31 227 -44 258 -84
15 -19 20 -40 20 -86 -1 -126 -17 -240 -44 -300 -29 -65 -33 -98 -12 -115 36
-30 94 41 137 165 21 61 24 86 23 219 -1 111 -5 159 -16 186 -18 41 -116 119
-193 155 -113 51 -275 65 -446 39z"/>
<path d="M1925 2923 c-181 -38 -406 -167 -448 -255 -21 -45 -8 -208 29 -355
29 -119 56 -173 85 -173 33 0 33 44 1 178 -17 70 -33 160 -36 200 l-4 72 81
48 c73 43 179 94 184 89 1 -1 -2 -33 -7 -71 -9 -73 -7 -95 17 -221 19 -97 32
-124 80 -164 79 -65 177 -76 270 -30 74 37 100 83 118 208 14 106 7 240 -16
282 -5 10 -9 20 -9 22 0 3 33 -2 73 -9 39 -8 73 -14 74 -14 1 0 9 7 17 16 18
17 21 76 6 104 -12 22 -71 54 -141 74 -68 21 -277 20 -374 -1z"/>
<path d="M3006 1851 c-21 -53 -45 -65 -120 -58 -43 4 -87 17 -150 47 -81 39
-95 42 -146 37 -31 -2 -97 -21 -146 -41 -142 -57 -196 -60 -208 -11 -8 30 -49
44 -72 24 -20 -16 -13 -73 13 -101 60 -66 129 -64 315 11 42 17 91 31 108 31
18 0 73 -18 122 -40 149 -67 265 -65 327 5 40 46 48 78 27 110 -25 37 -51 32
-70 -14z"/>
</g>
</svg>
